<svg width="20" height="20" viewBox="-1.25 0 20 20" xmlns="http://www.w3.org/2000/svg">
	<path fill="#fff" d="M1.25 18.125A1.875 1.875 0 0 0 3.125 20h11.25a1.875 1.875 0 0 0 1.875-1.875V5h-15zm10.625-10a.625.625 0 0 1 1.25 0v8.75a.625.625 0 0 1-1.25 0zm-3.75 0a.625.625 0 0 1 1.25 0v8.75a.625.625 0 0 1-1.25 0zm-3.75 0a.625.625 0 0 1 1.25 0v8.75a.625.625 0 0 1-1.25 0zm12.5-6.875h-4.687l-.367-.731A.938.938 0 0 0 10.98 0H6.516a.926.926 0 0 0-.835.52l-.368.73H.625A.625.625 0 0 0 0 1.875v1.25a.625.625 0 0 0 .625.625h16.25a.625.625 0 0 0 .625-.625v-1.25a.625.625 0 0 0-.625-.625z"/>
</svg>
